<?xml version="1.0" encoding="UTF-8"?>
<svg id="Layer_1" data-name="Layer 1" xmlns="http://www.w3.org/2000/svg" xmlns:xlink="http://www.w3.org/1999/xlink" viewBox="0 0 1080 1080">
  <defs>
    <style>
      .cls-1 {
        fill: url(#linear-gradient);
      }
    </style>
    <linearGradient id="linear-gradient" x1="29.11" y1="676.86" x2="1050.86" y2="403.08" gradientUnits="userSpaceOnUse">
      <stop offset="0" stop-color="#ffdc8b"/>
      <stop offset=".08" stop-color="#fedb96"/>
      <stop offset=".21" stop-color="#fdd9b6"/>
      <stop offset=".26" stop-color="#fdd9c3"/>
      <stop offset=".47" stop-color="#ffb1f1"/>
      <stop offset=".75" stop-color="#c3d3fd"/>
      <stop offset="1" stop-color="#b1f0ff"/>
    </linearGradient>
  </defs>
  <path class="cls-1" d="M715.83,389.16c-70.85,70.77-81.51,178.94-31.97,260.96,5.01,8.27,3.76,18.86-3.08,25.69l-4.89,4.9c-6.84,6.82-17.41,8.09-25.65,3.11-72.16-43.46-164.51-40.41-233.95,9.15-8.37,5.98-19.82,5.12-27.12-2.15-7.3-7.29-8.15-18.74-2.14-27.11,49.59-69.35,52.65-161.69,9.1-233.83-4.98-8.25-3.7-18.83,3.12-25.65l4.98-4.96c6.78-6.78,17.35-8.13,25.56-3.18,81.93,49.32,189.95,38.7,260.77-31.96,83.46-83.25,83.64-218.29.46-301.61-83.22-83.33-218.32-83.39-301.78-.15-70.21,70.04-81.48,176.74-33.71,258.46,5.8,9.93,4.06,22.54-4.09,30.68-8.12,8.13-20.74,9.88-30.69,4.09-81.66-47.58-188.21-36.38-258.2,33.59-83.34,83.29-83.37,218.29-.06,301.54,69.96,69.93,176.42,81.07,258.11,33.5,9.96-5.79,22.57-4.02,30.66,4.09l.31.31c8.15,8.13,9.89,20.76,4.09,30.68-47.79,81.72-36.71,188.32,33.29,258.31,83.31,83.25,218.44,83.15,301.84-.22,70.08-70.04,81.32-176.59,33.74-258.22-5.8-9.93-4.03-22.52,4.09-30.65l.06-.05c8.12-8.13,20.74-9.88,30.66-4.09,81.69,47.57,188.21,36.38,258.2-33.57,83.22-83.18,83.31-217.97.31-301.29-83.52-83.84-218.26-83.98-301.99-.36Z"/>
</svg>