<?xml version="1.0" encoding="UTF-8"?>
<svg id="Layer_1" data-name="Layer 1" xmlns="http://www.w3.org/2000/svg" xmlns:xlink="http://www.w3.org/1999/xlink" viewBox="0 0 1920 377.97">
  <defs>
    <style>
      .cls-1 {
        fill: #fff7e9;
      }

      .cls-2 {
        fill: url(#linear-gradient);
      }
    </style>
    <linearGradient id="linear-gradient" x1="1772.41" y1="147.63" x2="1881.02" y2="39.01" gradientUnits="userSpaceOnUse">
      <stop offset="0" stop-color="#febf6d"/>
      <stop offset="1" stop-color="#ffdc8b"/>
    </linearGradient>
  </defs>
  <path class="cls-2" d="M1857.11,67.25c-12.24,12.23-14.08,30.92-5.53,45.09.87,1.43.65,3.26-.53,4.44l-.84.85c-1.18,1.18-3.01,1.4-4.43.54-12.47-7.51-28.43-6.98-40.43,1.58-1.45,1.03-3.42.89-4.69-.37-1.26-1.26-1.41-3.24-.37-4.69,8.57-11.98,9.1-27.94,1.57-40.4-.86-1.43-.64-3.25.54-4.43l.86-.86c1.17-1.17,3-1.4,4.42-.55,14.16,8.52,32.82,6.69,45.06-5.52,14.42-14.39,14.45-37.72.08-52.12-14.38-14.4-37.73-14.41-52.15-.03-12.13,12.1-14.08,30.54-5.83,44.66,1,1.72.7,3.89-.71,5.3-1.4,1.4-3.58,1.71-5.3.71-14.11-8.22-32.52-6.29-44.62,5.8-14.4,14.39-14.41,37.72-.01,52.11,12.09,12.08,30.49,14.01,44.6,5.79,1.72-1,3.9-.7,5.3.71l.05.05c1.41,1.4,1.71,3.59.71,5.3-8.26,14.12-6.34,32.54,5.75,44.64,14.4,14.39,37.75,14.37,52.16-.04,12.11-12.1,14.05-30.51,5.83-44.62-1-1.72-.7-3.89.71-5.3h.01c1.4-1.41,3.58-1.72,5.3-.72,14.12,8.22,32.52,6.29,44.62-5.8,14.38-14.37,14.4-37.67.05-52.06-14.43-14.49-37.71-14.51-52.18-.06Z"/>
  <path class="cls-1" d="M77.06,371.02h-36.23c-14.56.38-27.4.79-38.55,1.17-1.52-1.92-2.28-5.15-2.28-9.75s.77-7.66,2.28-9.18c13.42-.79,23.79-2.12,31.08-4.02,7.29-1.92,12.27-6.52,14.93-13.77,2.69-7.28,4.05-18.73,4.05-34.42V71.09c0-16.06-1.35-27.53-4.05-34.41-2.66-7.27-7.66-11.85-14.93-13.76-7.27-2.3-17.65-3.63-31.08-4.01-1.52-1.91-2.28-5.17-2.28-9.75S.77,1.52,2.28-.01c13.42.38,26.45.77,39.12,1.14h70.75c13.04-.38,26.08-.77,39.12-1.14,1.92,1.53,2.88,4.6,2.88,9.18s-.95,7.84-2.88,9.75c-13.42.38-23.77,1.73-31.08,4.01-7.29,1.91-12.25,6.5-14.93,13.76-2.69,6.88-4.03,18.35-4.03,34.41v237.43c0,14.52,2.66,24.84,8.04,30.98,5.38,6.11,13.61,9.18,24.74,9.18h36.23c20.31,0,36.61-3.45,48.9-10.35,12.24-6.86,21.84-15.86,28.77-26.93,6.9-11.49,12.24-24.1,16.08-37.88,6.52-1.14,12.84-.2,18.99,2.88-1.52,14.9-3.64,30.98-6.32,48.17-2.66,17.21-5.54,33.1-8.61,47.62,0,0-2.88-.19-8.64-.6h-20.13c-7.66,0-15.35-.19-23-.57H77.06ZM402.49,376.79c-18.79,0-33.74-3.63-44.87-10.92-10.73-7.63-18.39-17.38-23.01-29.24-4.21-12.24-6.32-24.84-6.32-37.85v-110.13c0-18.73-2.47-30.77-7.47-36.12-4.97-5.35-14.36-8.61-28.17-9.75-1.55-1.91-2.31-5.17-2.31-9.75s.77-7.64,2.31-9.18c9.97.38,19.93.77,29.91,1.14h28.77c9.56,0,16.3-.38,20.13-1.14,3.07,0,4.6,1.14,4.6,3.44,0,0-.2,3.83-.57,11.47-.38,7.27-.77,15.68-1.14,25.23-.4,9.18-.6,16.64-.6,22.38v104.37c0,16.84,2.69,29.65,8.07,38.42,5.38,8.41,11.49,13.95,18.42,16.64,7.29,2.69,13.8,4.02,19.56,4.02,7.29,0,15.89-2.31,25.86-6.89,10.38-4.59,20.91-11.46,31.65-20.64,4.21-3.45,6.71-6.71,7.47-9.75,1.17-3.06,1.74-7.28,1.74-12.63v-110.69c0-19.1-2.49-31.34-7.47-36.69-4.62-5.74-14.01-8.98-28.19-9.75-1.52-1.91-2.31-5.17-2.31-9.75s.79-7.64,2.31-9.18c9.97.38,19.93.77,29.91,1.14h28.77c9.58,0,16.3-.38,20.13-1.14,3.06,0,4.63,1.14,4.63,3.44,0,0-.2,3.83-.6,11.47-.38,7.27-.77,15.68-1.14,25.23-.37,9.18-.57,16.64-.57,22.38v110.1c0,14.15,2.31,24.3,6.89,30.41,5,6.11,16.67,9.94,35.09,11.46,1.91,1.55,2.88,4.02,2.88,7.46s-.97,6.11-2.88,8.03c-17.65,1.91-31.83,4.97-42.56,9.18-10.35,3.8-18.79,8.38-25.31,13.77-3.45,1.52-7.09,1.52-10.92,0,0,0-.98-3.83-2.88-11.49-1.55-7.63-2.69-15.09-3.45-22.38-.38-1.89-1.55-2.66-3.45-2.28-1.92,0-3.66.57-5.18,1.71-28,22.95-53.87,34.42-77.66,34.42h-.01ZM1483.09,353.27c-10.38-.79-18.22-2.12-23.6-4.02-5.35-2.31-8.98-6.89-10.92-13.77-1.52-7.28-2.32-18.73-2.32-34.42v-90.61c0-17.21-1.51-32.7-4.59-46.45-2.69-13.76-8.26-24.66-16.67-32.7-8.44-8.03-21.1-12.04-37.98-12.04-14.55,0-30.28,3.24-47.15,9.75-16.87,6.11-32.78,17.02-47.76,32.7-.76.77-1.89,1.53-3.45,2.3-1.14.77-2.12-.2-2.88-2.87-2.69-11.47-9.21-21.22-19.56-29.26-10.35-8.41-23.01-12.62-37.95-12.62-16.49,0-32.21,4.4-47.18,13.19-14.94,8.8-28.39,19.88-40.26,33.27-1.17,1.53-2.69,2.87-4.61,4.01-1.52.77-2.28-.57-2.28-4.01-.37-8.41-.98-17.02-1.74-25.82-.38-8.79-1.34-14.72-2.89-17.78-.76-1.14-1.52-2.1-2.28-2.87-.78-1.14-2.32-1.73-4.61-1.73-8.04,3.06-16.87,5.93-26.46,8.61-9.58,2.67-24.33,5.35-44.3,8.03-.37,1.53-.37,4.2,0,8.03.41,3.44.8,6.11,1.17,8.03,10.35.77,18.19,2.1,23.58,4.01s9.01,5.54,10.92,10.89c1.92,4.97,2.88,13.01,2.88,24.08v111.83c0,15.69-1.14,27.15-3.45,34.42-1.9,6.86-5.75,11.46-11.49,13.77-5.38,1.89-35.33,4.04-35.35,4.04,0,0-29.37-2.13-34.74-4.04-5.38-2.31-9.01-6.89-10.95-13.77-1.52-7.28-2.28-18.73-2.28-34.42v-90.61c0-17.21-1.55-32.7-4.63-46.45-2.69-13.76-8.23-24.66-16.67-32.7-8.44-8.03-21.08-12.04-37.98-12.04-14.55,0-30.28,3.24-47.15,9.75-16.87,6.11-32.78,17.02-47.76,32.7-.76.77-1.89,1.53-3.45,2.3-1.14.77-2.09-.2-2.88-2.87-2.66-11.47-9.18-21.22-19.56-29.26-10.35-8.41-23.01-12.62-37.95-12.62-16.49,0-32.21,4.4-47.18,13.19-14.93,8.8-28.36,19.88-40.26,33.27-1.14,1.53-2.68,2.87-4.59,4.01-1.55.77-2.32-.57-2.32-4.01-.37-8.41-.94-17.02-1.74-25.82-.37-8.79-1.32-14.72-2.88-17.78-.77-1.14-1.52-2.1-2.29-2.87-.79-1.14-2.31-1.73-4.61-1.73-8.04,3.06-16.87,5.93-26.45,8.61-9.58,2.67-24.34,5.35-44.27,8.03-.37,1.53-.37,4.21,0,8.03.37,3.44.76,6.11,1.14,8.03,10.35.77,18.22,2.1,23.57,4.01,5.38,1.91,9.01,5.54,10.95,10.89,1.91,4.97,2.85,13.01,2.85,24.08v111.83c0,15.69-1.14,27.15-3.45,34.42-1.89,6.87-5.72,11.46-11.49,13.77-5.38,1.89-13.42,3.23-24.17,4.02-1.51,1.52-2.28,4.58-2.28,9.18s.77,7.83,2.28,9.75c8.84-.38,18.42-.79,28.77-1.17h64.43c9.2.38,18.22.79,27.02,1.17,1.55-1.92,2.32-5.15,2.32-9.75s-.77-7.66-2.32-9.18c-9.97-1.17-17.44-2.69-22.44-4.6-4.97-1.92-8.42-6.32-10.35-13.2-1.89-7.28-2.88-18.73-2.88-34.42v-94.05c0-6.11.97-10.89,2.88-14.34,2.32-3.83,4.61-7.06,6.9-9.75,23.01-22.56,43.73-33.84,62.11-33.84,11.13,0,20.15,4.01,27.05,12.04,7.29,7.64,10.92,21.03,10.92,40.14v99.78c0,15.69-.76,27.15-2.31,34.42-1.52,6.87-4.97,11.46-10.35,13.77-4.97,1.89-12.66,3.23-23,4.02-1.52,1.52-2.31,4.58-2.31,9.18s.79,7.83,2.31,9.75c7.27-.38,15.92-.79,25.88-1.17h63.86c9.58.38,18.01.79,25.29,1.17,1.55-1.92,2.31-5.15,2.31-9.75s-.76-7.66-2.31-9.18c-9.58-.79-16.87-2.12-21.84-4.02-4.63-2.31-7.89-6.89-9.78-13.77-1.55-7.28-2.32-18.73-2.32-34.42v-103.22c0-3.83-.2-7.44-.57-10.89,13.8-15.3,27.03-25.43,39.69-30.4,13.04-4.97,25.13-7.45,36.23-7.45s19.56,3.83,25.31,11.47c6.15,7.27,9.21,20.47,9.21,39.57v100.93c0,15.69-.98,27.15-2.89,34.42-1.55,6.87-5,11.46-10.35,13.77-5,1.89-12.47,3.23-22.44,4.02-1.55,1.52-2.31,4.58-2.31,9.18s.76,7.83,2.31,9.75c8.73-.29,46.32-1.04,58.68-1.17,12.36-.13,69.75,0,70.41,0s61.67-.1,73.27,0c11.6.1,49.29.96,58.11,1.17,1.55-1.92,2.31-5.15,2.31-9.75s-.76-7.66-2.31-9.18c-9.97-1.17-17.44-2.69-22.44-4.6-4.97-1.92-8.41-6.32-10.35-13.2-1.93-7.28-2.89-18.73-2.89-34.42v-94.05c0-6.11.95-10.89,2.89-14.34,2.31-3.83,4.59-7.06,6.89-9.75,23.01-22.56,43.73-33.84,62.11-33.84,11.13,0,20.13,4.01,27.05,12.04,7.28,7.64,10.92,21.03,10.92,40.14v99.78c0,15.69-.77,27.15-2.32,34.42-1.52,6.87-4.97,11.46-10.35,13.77-5,1.89-12.66,3.23-23.01,4.02-1.55,1.52-2.31,4.58-2.31,9.18s.76,7.83,2.31,9.75c7.28-.38,15.92-.79,25.88-1.17h63.83c9.58.38,18.04.79,25.31,1.17,1.55-1.92,2.31-5.15,2.31-9.75s-.76-7.66-2.31-9.18c-9.58-.79-16.87-2.12-21.87-4.02-4.59-2.31-7.84-6.89-9.78-13.77-1.51-7.28-2.28-18.73-2.28-34.42v-103.22c0-3.83-.2-7.44-.57-10.89,13.8-15.3,27.02-25.43,39.69-30.4,13.04-4.97,25.1-7.45,36.23-7.45s19.56,3.83,25.31,11.47c6.14,7.27,9.18,20.47,9.18,39.57v100.93c0,15.69-.94,27.15-2.85,34.42-1.55,6.86-5,11.46-10.38,13.77-4.97,1.89-12.44,3.23-22.42,4.02-1.55,1.52-2.31,4.58-2.31,9.18s.76,7.83,2.31,9.75c7.28-.38,15.9-.79,25.86-1.17h65c9.97.38,18.98.79,27.05,1.17,1.52-1.92,2.29-5.15,2.29-9.75s-.77-7.66-2.29-9.18l.17.03ZM1730.56,338.34c-18.41-1.52-30.09-5.35-35.09-11.46-4.58-6.11-7.47-16.26-7.47-30.41v-80.29c0-27.15-4.43-47.59-13.23-61.37-8.44-14.15-19.36-23.52-32.8-28.1-13.04-4.97-26.65-7.45-40.83-7.45-15.73,0-30.88,3.06-45.44,9.18-14.56,6.11-26.45,13.95-35.66,23.52-9.21,9.57-13.8,19.88-13.8,30.97,0,13.77,6.71,20.64,20.13,20.64,8.44,0,14.96-2.28,19.56-6.86,5-4.58,7.47-8.8,7.47-12.63,0-4.6-.57-8.01-1.71-10.32-.38-.77-.76-2.1-1.17-4.01v-7.45c0-8.8,5-14.91,14.96-18.35,9.97-3.83,20.31-5.74,31.08-5.74,6.52,0,13.42,1.71,20.7,5.17,7.28,3.44,13.41,10.51,18.41,21.22,4.97,10.32,7.47,26.39,7.47,48.17,0,3.83-1.17,6.14-3.45,6.89l-49.47,12.06c-27.62,6.86-50.44,17.57-68.46,32.1-17.65,14.55-26.45,31.55-26.45,51.05,0,23.32,7.09,39.59,21.27,48.76,14.18,8.8,31.26,13.2,51.19,13.2,9.97,0,20.04-1.02,29.34-5.18,13.52-6.07,28.07-17.06,39.69-29.24,0,0,.61-.35,1.66-.95,1.1-.49,2.27-.77,3.54-.77,1.89-.38,3.06.38,3.45,2.28.77,7.28,1.89,14.75,3.45,22.38,1.89,7.66,2.89,11.49,2.89,11.49,3.83,1.52,7.46,1.52,10.92,0,6.52-5.37,14.96-9.97,25.31-13.77,10.73-4.21,24.91-7.28,42.56-9.18,1.91-1.92,2.89-4.6,2.89-8.03s-.98-5.92-2.89-7.46v-.04ZM1554.56,275.26c7.66-11.86,22.02-20.47,43.13-25.82l45.44-12.03v72.84c0,2.08,0,5.44-.67,8.28-.37,1.41-.92,2.67-1.65,3.75-1.51,1.91-3.46,3.83-5.75,5.72-7.29,6.11-15.51,11.86-24.71,17.21-9.75,5.46-19.31,8.03-25.88,8.03-14.21,0-24.74-4.6-31.65-13.77-6.52-9.18-9.78-18.16-9.78-26.96,0-13.01,3.83-25.44,11.53-37.28h0Z"/>
</svg>